<svg id="Layer_1" data-name="Layer 1" xmlns="http://www.w3.org/2000/svg" viewBox="0 0 137.66 141.88"><defs><style>.cls-1{fill:#fff;}</style></defs><title>Untitled-1</title><path d="M134.64,97.28c2.7-.42,5-.87,7.35-1.12a17.74,17.74,0,0,1,5.09-.08,6.7,6.7,0,0,1,4.64,9.91,17.56,17.56,0,0,1-4.21,4.89,29.49,29.49,0,0,1-17.11,6.49c-2.11.16-4.24,0-6.51,0-.12,2.13-.11,4.08-.35,6-.65,5-1.08,10.14-2.19,15.08-2.35,10.45-9,16.57-19.59,18.44a22.36,22.36,0,0,1-9,.16,14.44,14.44,0,0,1-10.16-8.32,42.67,42.67,0,0,1-3.85-16.52c-.17-3.55-.33-7.11-.49-10.75-8.58,2.73-16.69,2.65-24.19-3.19l-.53.36c-5.36,3.79-11.17,3.52-16.18-.76a31,31,0,0,1-6.78-8.74C26.26,101.28,23.45,92.81,21,84.2a169.8,169.8,0,0,1-5.74-27.13A46.07,46.07,0,0,1,17.2,36.75c3.67-10.62,11.28-16.68,22.21-18.61,9.34-1.64,18.45-.07,27.4,2.61a5.45,5.45,0,0,0,4.53-.31,32.2,32.2,0,0,1,16.56-3.3c2.72.11,5.44.49,8.16.68a8.2,8.2,0,0,0,2.57-.19c11-2.75,21.88-3.07,32.64,1a38.94,38.94,0,0,1,17.16,12.78c2.72,3.5,3.35,7.68,3.45,11.93.19,7.87-1.52,15.45-3.72,22.94a136.17,136.17,0,0,1-12.59,29.25C135.32,96,135.1,96.43,134.64,97.28ZM81.39,114.54c0,.55.07.95.08,1.35.22,6.71.38,13.43.68,20.14a22.14,22.14,0,0,0,3.24,11.2c2.33,3.66,5.51,6.11,9.89,6.34a30.88,30.88,0,0,0,8-.68c8.19-1.68,13.12-6.69,14.44-15,.85-5.3,1.54-10.63,2.25-15.95.41-3,.74-6.05,1.11-9.14.54.1.94.19,1.35.24,8.48,1.07,16.34-.33,23.09-5.91a10.75,10.75,0,0,0,2.55-3.07c1.17-2.12,0-4.17-2.42-4.41a11.55,11.55,0,0,0-2.49.11c-2.84.36-5.67.88-8.53,1.1a10.44,10.44,0,0,1-6.37-1.19c.29-.48.51-.88.75-1.26a132.84,132.84,0,0,0,14.76-31.76c2.46-7.94,4.35-16,4-24.4-.14-3.23-.71-6.35-2.85-9a35.43,35.43,0,0,0-14.92-11c-10.61-4.07-21.31-3.55-32-.51a4.82,4.82,0,0,1-1.88.2c-2.07-.26-4.11-.72-6.18-.91C83.92,20.51,78,21,72.75,24a7.39,7.39,0,0,1-6.53.48c-8.46-2.68-17.1-4.22-26-2.71-9.63,1.64-16.31,6.92-19.45,16.31a42.1,42.1,0,0,0-1.61,18.81A186.07,186.07,0,0,0,27.08,90.6a87,87,0,0,0,7.21,17,24.87,24.87,0,0,0,6.09,7.51c3.65,2.81,7.46,2.79,11.06-.1A21.93,21.93,0,0,0,54,112.41c3.32-3.74,6.61-7.51,9.95-11.24a1.66,1.66,0,0,1,1.31-.56c2.38.66,4.72,1.43,7.11,2.18-1.45,2.12-3.06,4.34-6.08,4.91a30.2,30.2,0,0,0-3.65.85A21.38,21.38,0,0,0,58,110.33a3.17,3.17,0,0,0-.46,5.31,9.57,9.57,0,0,0,3.28,2c7,2.35,13.67,2,19.76-2.59C80.81,114.9,81,114.77,81.39,114.54Z" transform="translate(-14.94 -15.57)"/><path class="cls-1" d="M81.39,114.54c-.36.23-.58.36-.79.51-6.09,4.63-12.78,4.94-19.76,2.59a9.57,9.57,0,0,1-3.28-2,3.17,3.17,0,0,1,.46-5.31,21.38,21.38,0,0,1,4.61-1.78,30.2,30.2,0,0,1,3.65-.85c3-.57,4.63-2.79,6.08-4.91-2.39-.75-4.73-1.52-7.11-2.18a1.66,1.66,0,0,0-1.31.56c-3.34,3.73-6.63,7.5-9.95,11.24A21.93,21.93,0,0,1,51.44,115c-3.6,2.89-7.41,2.91-11.06.1a24.87,24.87,0,0,1-6.09-7.51,87,87,0,0,1-7.21-17,186.07,186.07,0,0,1-7.92-33.74,42.1,42.1,0,0,1,1.61-18.81c3.14-9.39,9.82-14.67,19.45-16.31,8.9-1.51,17.54,0,26,2.71A7.39,7.39,0,0,0,72.75,24C78,21,83.92,20.51,89.87,21c2.07.19,4.11.65,6.18.91a4.82,4.82,0,0,0,1.88-.2c10.73-3,21.43-3.56,32,.51a35.43,35.43,0,0,1,14.92,11c2.14,2.62,2.71,5.74,2.85,9,.34,8.4-1.55,16.46-4,24.4A132.84,132.84,0,0,1,129,98.4c-.24.38-.46.78-.75,1.26a10.44,10.44,0,0,0,6.37,1.19c2.86-.22,5.69-.74,8.53-1.1a11.55,11.55,0,0,1,2.49-.11c2.41.24,3.59,2.29,2.42,4.41a10.75,10.75,0,0,1-2.55,3.07c-6.75,5.58-14.61,7-23.09,5.91-.41,0-.81-.14-1.35-.24-.37,3.09-.7,6.12-1.11,9.14-.71,5.32-1.4,10.65-2.25,15.95-1.32,8.32-6.25,13.33-14.44,15a30.88,30.88,0,0,1-8,.68c-4.38-.23-7.56-2.68-9.89-6.34A22.14,22.14,0,0,1,82.15,136c-.3-6.71-.46-13.43-.68-20.14C81.46,115.49,81.43,115.09,81.39,114.54Zm42.37-62.41c-.12-.36-.18-.57-.26-.78C117.67,37,104,24,84.21,25.1a22.19,22.19,0,0,0-14,5.38c-7.67,6.83-9.86,16.05-11.07,25.9l1-.4a27.76,27.76,0,0,1,10.31-3c6-.42,10.39,2.31,11.72,8.07a85.54,85.54,0,0,1,1.49,9.29,34.65,34.65,0,0,1-2.19,17.44c-1.1,2.69-2.23,5.38-3.31,8.08-.4,1-.67,2.06-1,3.13,5.07.37,8,2.93,8.55,7.66.22,1.77-.15,3.61-.1,5.41.25,8.42.5,16.84.84,25.26a15.4,15.4,0,0,0,2.72,8.05c1.87,2.78,4.43,4.4,7.81,4.2a41.25,41.25,0,0,0,6.81-1.07c5.56-1.32,8.74-5,9.7-10.54.68-3.91,1.28-7.84,1.75-11.79.79-6.6,1.46-13.23,2.14-19.85.33-3.13,1.6-5.57,4.65-6.83a7.07,7.07,0,0,0,.87-.47c-1.33-2-2.76-3.75-3.85-5.72q-3.53-6.37-6.76-12.91a46.35,46.35,0,0,1-5-15.2c-.83-6.85,3-11.94,9.89-12.66C119.28,52.29,121.45,52.26,123.76,52.13ZM65.83,28.72a5,5,0,0,0-.53-.28c-7.84-2.46-15.83-3.89-24-2.68-7.12,1-12.71,4.5-15.68,11.34-2.83,6.52-3.18,13.39-2.22,20.3A183.35,183.35,0,0,0,29.94,86c2.21,7.17,4.64,14.26,8.66,20.66a25.82,25.82,0,0,0,4.26,5.07c2,1.83,4.1,1.73,6.11-.07A43.73,43.73,0,0,0,52.35,108c2.91-3.29,5.8-6.6,8.69-9.89a1,1,0,0,0-.14-.27c-.16-.17-.33-.33-.49-.49-5-5.06-6.74-11.11-6-18.15a100.87,100.87,0,0,0,.43-14.12c-.33-8.62.58-17,3.81-25A34.67,34.67,0,0,1,65.83,28.72Zm38.3-4.33c.56.35.8.52,1.07.66,10.47,5.37,17.56,13.8,22.2,24.49a17.79,17.79,0,0,1,1,10.2,61.25,61.25,0,0,0-.33,18.63c.78,5.54.46,11-2.38,16a2.8,2.8,0,0,0-.14,1,1.22,1.22,0,0,0,.77-.57c9.15-15.24,15.88-31.32,17.33-49.26.37-4.69-.63-8.84-4.28-12.34C129.38,23.59,117.4,22.31,104.13,24.39ZM79.55,74.45l.37,0c-.57-3.88-1.11-7.76-1.74-11.63-.73-4.42-3.61-5.9-7.7-5.57a24.33,24.33,0,0,0-9.91,3.36,2.43,2.43,0,0,0-1.48,2.63,82.44,82.44,0,0,1-.47,16.91,16,16,0,0,0,2.07,10.7c2.52,4.14,6,6.83,11,7.38.91.1,1.26-.22,1.57-1.09,1.07-3,2.18-6,3.45-8.92A30.41,30.41,0,0,0,79.55,74.45ZM122.64,91l.31-.73c1.8-4.63,1.08-9.37.73-14.13a107.67,107.67,0,0,1-.2-10.78c.07-2.49.55-5,.85-7.43.08-.68,0-1.26-.85-1.3-3-.15-5.93-.38-8.75.89a5.21,5.21,0,0,0-3.07,3.7,14.53,14.53,0,0,0,.46,7.26C114.27,76.56,118.9,83.45,122.64,91Zm-61.15,22,0,.47c.91.28,1.81.64,2.74.83,6.38,1.31,12.07.31,16.36-5.11a3.69,3.69,0,0,0-.83-5.32c-1.26-.87-2-.83-3,.28a18.25,18.25,0,0,0-2,2.33,12.65,12.65,0,0,1-8.42,5.38C64.68,112.26,63.09,112.69,61.49,113.07Zm81.23-9c-2,.28-3.66.58-5.31.72-3.88.32-7.76.48-11.33-1.57a2.21,2.21,0,0,0-1.44-.15c-2.06.45-2.69,1.36-3.11,3.84-.22,1.3.19,2,1.49,2a78.92,78.92,0,0,0,8.14,0A20.72,20.72,0,0,0,142.72,104.09Z" transform="translate(-14.94 -15.57)"/><path d="M123.76,52.13c-2.31.13-4.48.16-6.63.39-6.87.72-10.72,5.81-9.89,12.66a46.35,46.35,0,0,0,5,15.2q3.24,6.53,6.76,12.91c1.09,2,2.52,3.76,3.85,5.72a7.07,7.07,0,0,1-.87.47c-3,1.26-4.32,3.7-4.65,6.83-.68,6.62-1.35,13.25-2.14,19.85-.47,4-1.07,7.88-1.75,11.79-1,5.56-4.14,9.22-9.7,10.54a41.25,41.25,0,0,1-6.81,1.07c-3.38.2-5.94-1.42-7.81-4.2a15.4,15.4,0,0,1-2.72-8.05c-.34-8.42-.59-16.84-.84-25.26,0-1.8.32-3.64.1-5.41-.58-4.73-3.48-7.29-8.55-7.66.35-1.07.62-2.12,1-3.13,1.08-2.7,2.21-5.39,3.31-8.08a34.65,34.65,0,0,0,2.19-17.44A85.54,85.54,0,0,0,82.15,61c-1.33-5.76-5.76-8.49-11.72-8.07a27.76,27.76,0,0,0-10.31,3l-1,.4c1.21-9.85,3.4-19.07,11.07-25.9a22.19,22.19,0,0,1,14-5.38C104,24,117.67,37,123.5,51.35,123.58,51.56,123.64,51.77,123.76,52.13Z" transform="translate(-14.94 -15.57)"/><path d="M65.83,28.72A34.67,34.67,0,0,0,58.63,40c-3.23,8.05-4.14,16.42-3.81,25a100.87,100.87,0,0,1-.43,14.12c-.72,7,1,13.09,6,18.15.16.16.33.32.49.49a1,1,0,0,1,.14.27c-2.89,3.29-5.78,6.6-8.69,9.89A43.73,43.73,0,0,1,49,111.65c-2,1.8-4.13,1.9-6.11.07a25.82,25.82,0,0,1-4.26-5.07c-4-6.4-6.45-13.49-8.66-20.66A183.35,183.35,0,0,1,23.36,57.4c-1-6.91-.61-13.78,2.22-20.3,3-6.84,8.56-10.3,15.68-11.34,8.21-1.21,16.2.22,24,2.68A5,5,0,0,1,65.83,28.72Z" transform="translate(-14.94 -15.57)"/><path d="M104.13,24.39c13.27-2.08,25.25-.8,35.28,8.83,3.65,3.5,4.65,7.65,4.28,12.34-1.45,17.94-8.18,34-17.33,49.26a1.22,1.22,0,0,1-.77.57,2.8,2.8,0,0,1,.14-1c2.84-5,3.16-10.5,2.38-16a61.25,61.25,0,0,1,.33-18.63,17.79,17.79,0,0,0-1-10.2c-4.64-10.69-11.73-19.12-22.2-24.49C104.93,24.91,104.69,24.74,104.13,24.39Z" transform="translate(-14.94 -15.57)"/><path d="M79.55,74.45a30.41,30.41,0,0,1-2.86,13.72c-1.27,2.93-2.38,5.92-3.45,8.92-.31.87-.66,1.19-1.57,1.09-5-.55-8.46-3.24-11-7.38a16,16,0,0,1-2.07-10.7,82.44,82.44,0,0,0,.47-16.91,2.43,2.43,0,0,1,1.48-2.63,24.33,24.33,0,0,1,9.91-3.36c4.09-.33,7,1.15,7.7,5.57.63,3.87,1.17,7.75,1.74,11.63ZM72.25,59a7.27,7.27,0,0,0-2.4.63,2.12,2.12,0,0,0-.69,1.81A4.1,4.1,0,0,0,75.86,63c1.13-1.13,1-2.31-.43-3A20.69,20.69,0,0,0,72.25,59Z" transform="translate(-14.94 -15.57)"/><path d="M122.64,91c-3.74-7.57-8.37-14.46-10.52-22.52a14.53,14.53,0,0,1-.46-7.26,5.21,5.21,0,0,1,3.07-3.7c2.82-1.27,5.79-1,8.75-.89.8,0,.93.62.85,1.3-.3,2.47-.78,4.94-.85,7.43a107.67,107.67,0,0,0,.2,10.78c.35,4.76,1.07,9.5-.73,14.13Zm-4-33.2a26.2,26.2,0,0,0-3.49,1c-1.42.66-1.48,1.65-.29,2.69a3.44,3.44,0,0,0,4.56.17c.69-.61,1.49-1.7,1.38-2.44S119.37,58.26,118.67,57.82Z" transform="translate(-14.94 -15.57)"/><path d="M61.49,113.07c1.6-.38,3.19-.81,4.8-1.14a12.65,12.65,0,0,0,8.42-5.38,18.25,18.25,0,0,1,2-2.33c1.06-1.11,1.79-1.15,3-.28a3.69,3.69,0,0,1,.83,5.32c-4.29,5.42-10,6.42-16.36,5.11-.93-.19-1.83-.55-2.74-.83Z" transform="translate(-14.94 -15.57)"/><path d="M142.72,104.09a20.72,20.72,0,0,1-11.56,4.83,78.92,78.92,0,0,1-8.14,0c-1.3,0-1.71-.73-1.49-2,.42-2.48,1-3.39,3.11-3.84a2.21,2.21,0,0,1,1.44.15c3.57,2.05,7.45,1.89,11.33,1.57C139.06,104.67,140.69,104.37,142.72,104.09Z" transform="translate(-14.94 -15.57)"/><path class="cls-1" d="M72.25,59a20.69,20.69,0,0,1,3.18,1c1.45.7,1.56,1.88.43,3a4.1,4.1,0,0,1-6.7-1.55,2.12,2.12,0,0,1,.69-1.81A7.27,7.27,0,0,1,72.25,59Z" transform="translate(-14.94 -15.57)"/><path class="cls-1" d="M118.67,57.82c.7.44,2.06.85,2.16,1.46s-.69,1.83-1.38,2.44a3.44,3.44,0,0,1-4.56-.17c-1.19-1-1.13-2,.29-2.69A26.2,26.2,0,0,1,118.67,57.82Z" transform="translate(-14.94 -15.57)"/></svg>