<svg id="Layer_1" data-name="Layer 1" xmlns="http://www.w3.org/2000/svg" viewBox="0 0 84.3 74.98">
  <defs>
    <style>.cls-1{fill:#1e1e1e;}</style>
  </defs>
  <title>Untitled-1</title>
  <path class="cls-1" d="M85.37,45.72l.48.15a44.31,44.31,0,0,1,8.8,3.59,23,23,0,0,1,5.34,3.9,11.49,11.49,0,0,1,2.45,3.48,7,7,0,0,1,0,5.68,11.35,11.35,0,0,1-2.27,3.38,21.55,21.55,0,0,1-4.67,3.67A42.2,42.2,0,0,1,86,73.7l-.47.16c.13.61.27,1.19.39,1.77a39.43,39.43,0,0,1,.91,8.53,22.58,22.58,0,0,1-.79,6.11,12.54,12.54,0,0,1-1.59,3.59,7.28,7.28,0,0,1-3.53,2.9,8.44,8.44,0,0,1-3.69.46,17.89,17.89,0,0,1-7-2.24,39,39,0,0,1-7.79-5.59l-1.13-1-.29-.26-.34.32a42,42,0,0,1-6.79,5.3,24.9,24.9,0,0,1-6.48,3,12.87,12.87,0,0,1-4.45.5,7.08,7.08,0,0,1-5-2.47,10.88,10.88,0,0,1-2.1-4,20.88,20.88,0,0,1-.76-4.58,30.18,30.18,0,0,1,.11-4.94,45.28,45.28,0,0,1,1.13-6.65c0-.14.07-.29.11-.47L36,73.91a42.26,42.26,0,0,1-8.58-3.54,24.06,24.06,0,0,1-5.57-4.15,11.76,11.76,0,0,1-2.48-3.6,7.1,7.1,0,0,1,.09-6.06A12.27,12.27,0,0,1,22.16,53a23.81,23.81,0,0,1,5.48-3.84A44.18,44.18,0,0,1,36,45.81l.45-.14a3,3,0,0,0,0-.33,48.62,48.62,0,0,1-1.07-5.71,32.13,32.13,0,0,1-.08-7.9,15.93,15.93,0,0,1,1.11-4.34,8.79,8.79,0,0,1,2.23-3.25,6.82,6.82,0,0,1,3.66-1.68,12.12,12.12,0,0,1,5.44.57,26.3,26.3,0,0,1,6.42,3.12,45.88,45.88,0,0,1,6.49,5.13l.32.29.34-.31a45.7,45.7,0,0,1,6.87-5.45,26.31,26.31,0,0,1,5.5-2.72,12.9,12.9,0,0,1,5-.79,7,7,0,0,1,5.14,2.58,11.06,11.06,0,0,1,2,3.84,20.43,20.43,0,0,1,.83,4.91,38.82,38.82,0,0,1-.78,9.73C85.72,44.13,85.54,44.89,85.37,45.72ZM60.71,73.4c2.55,0,5.1-.12,7.65-.29a.47.47,0,0,0,.43-.24c.16-.26.34-.52.51-.78a115.81,115.81,0,0,0,6.85-12,.68.68,0,0,0,0-.7c-.39-.71-.74-1.44-1.12-2.16a113,113,0,0,0-6.21-10.44.63.63,0,0,0-.56-.34c-1.05,0-2.1-.14-3.15-.18q-4.2-.18-8.4,0c-1,0-2.05.13-3.07.17a.77.77,0,0,0-.68.41,105.58,105.58,0,0,0-7.22,12.5.85.85,0,0,0,0,.86,103.84,103.84,0,0,0,7.08,12.27c.45.66.45.67,1.25.7ZM37.46,49.15l-.25,0a40.6,40.6,0,0,0-8.46,3.41,19.12,19.12,0,0,0-4.43,3.26A8.45,8.45,0,0,0,22.74,58a3.61,3.61,0,0,0,0,3.22,7.8,7.8,0,0,0,1.17,1.83,16.11,16.11,0,0,0,3.62,3.12,36.08,36.08,0,0,0,9.72,4.33,1.5,1.5,0,0,0,.22,0c0-.11.07-.19.09-.27a87.53,87.53,0,0,1,3.91-10.13.78.78,0,0,0,0-.74,84,84,0,0,1-3.83-9.92Zm2.48,25.78c0,.17-.09.3-.12.43-.24,1.15-.5,2.3-.69,3.46a29.25,29.25,0,0,0-.36,8.25,14,14,0,0,0,.76,3.31,6.9,6.9,0,0,0,1,1.81,3.55,3.55,0,0,0,2.17,1.36,7.63,7.63,0,0,0,3.12-.14,17.31,17.31,0,0,0,4-1.47,36.62,36.62,0,0,0,8.61-6.27s.07-.1.12-.16l-.22-.26c-1.49-1.62-2.92-3.29-4.27-5-.86-1.12-1.7-2.26-2.54-3.39a.6.6,0,0,0-.44-.29c-1.37-.13-2.74-.25-4.1-.44-1.71-.23-3.41-.52-5.11-.79C41.23,75.2,40.6,75.06,39.94,74.93Zm42.13-.15-.32,0c-2,.44-3.91.81-5.9,1.07-1.61.22-3.22.4-4.83.57a.75.75,0,0,0-.59.33,82.62,82.62,0,0,1-6.67,8.48c-.06.07-.11.16-.2.28a.83.83,0,0,1,.17.11,42.77,42.77,0,0,0,4.92,4.1A24.9,24.9,0,0,0,74.49,93a10.58,10.58,0,0,0,3.69.72,3.77,3.77,0,0,0,3.29-1.77,8.46,8.46,0,0,0,1-2.13,18.52,18.52,0,0,0,.81-5.58A36.58,36.58,0,0,0,82.36,76C82.27,75.59,82.17,75.19,82.07,74.78ZM58.46,34.1c-.11-.09-.22-.16-.31-.24-.93-.81-1.85-1.65-2.81-2.42a30.14,30.14,0,0,0-6.53-4.16A13.38,13.38,0,0,0,44,25.94a3.84,3.84,0,0,0-4,2.19,11.77,11.77,0,0,0-.69,1.73,17.17,17.17,0,0,0-.66,5.19c0,1.14.09,2.29.19,3.44a42.27,42.27,0,0,0,1.07,6,2.77,2.77,0,0,0,.1.26l.25,0c1.76-.33,3.51-.7,5.27-1s3.49-.46,5.24-.66a1,1,0,0,0,.74-.41,83.81,83.81,0,0,1,6.66-8.26ZM81.87,44.81c0-.16.1-.3.13-.44.22-1.1.46-2.2.64-3.31A30.81,30.81,0,0,0,83,32.81a15.48,15.48,0,0,0-.68-3.3A7.32,7.32,0,0,0,81,27.11a3.45,3.45,0,0,0-2.33-1.22,7.6,7.6,0,0,0-2.56.2,17.13,17.13,0,0,0-4.44,1.78A39.1,39.1,0,0,0,63.6,34a1.71,1.71,0,0,0-.11.14l.13.16a83.77,83.77,0,0,1,6.79,8.48.69.69,0,0,0,.53.3c1.12.12,2.23.24,3.35.38,1.91.24,3.8.56,5.69,1Zm2.7,25.57.28-.06a41,41,0,0,0,7.61-3.12,21.79,21.79,0,0,0,4.46-3.09,10.18,10.18,0,0,0,2-2.5,3.69,3.69,0,0,0,0-3.88,9.78,9.78,0,0,0-1.45-1.86,19.2,19.2,0,0,0-4-3,39.9,39.9,0,0,0-8.71-3.6,2.5,2.5,0,0,0-.29,0,1.78,1.78,0,0,0-.09.23,82.17,82.17,0,0,1-3.88,9.94.72.72,0,0,0,0,.67,83.3,83.3,0,0,1,4,10C84.48,70.16,84.53,70.26,84.57,70.38ZM73.19,72.65A75.58,75.58,0,0,0,81,71.32,47,47,0,0,0,78.2,64C76.66,66.9,75,69.77,73.19,72.65ZM40.9,71.46a74.12,74.12,0,0,0,7.8,1.25C46.86,69.86,45.21,67,43.64,64A78,78,0,0,0,40.9,71.46ZM66,76.93l0-.1c-.66,0-1.32.06-2,.07s-1.32,0-2,0H60l-2,0c-.65,0-1.3-.08-2,0a54.39,54.39,0,0,0,5.08,6A73.16,73.16,0,0,0,66,76.93ZM78.21,55.48a66.15,66.15,0,0,0,2.71-7.2,71.9,71.9,0,0,0-7.72-1.34C75,49.78,76.64,52.6,78.21,55.48ZM65.84,42.67a66.32,66.32,0,0,0-4.86-6,.61.61,0,0,0-.14.11c-1.49,1.59-2.88,3.26-4.22,5-.21.27-.4.54-.6.82v0s0,0,0,.06C59.3,42.56,62.56,42.56,65.84,42.67ZM43.64,55.46c1.49-2.76,3-5.47,4.71-8.11a3.37,3.37,0,0,0,.19-.32v0a.33.33,0,0,0,0-.06A76.65,76.65,0,0,0,41,48.25,66.21,66.21,0,0,0,43.64,55.46Z" transform="translate(-18.76 -22.28)" />
  <path class="cls-1" d="M60.9,67.21a7.52,7.52,0,1,1,7.52-7.51A7.5,7.5,0,0,1,60.9,67.21Z" transform="translate(-18.76 -22.28)" />
</svg>